<svg width="184" height="111" viewBox="0 0 184 111" fill="none" xmlns="http://www.w3.org/2000/svg">
    <path d="M18.8974 89.3128V95.991C17.7509 94.5914 16.7235 93.6309 15.8152 93.1098C14.9218 92.5737 13.872 92.3057 12.6659 92.3057C10.7749 92.3057 9.20394 92.9683 7.95317 94.2935C6.7024 95.6188 6.07701 97.279 6.07701 99.2743C6.07701 101.314 6.68006 102.989 7.88616 104.3C9.10715 105.61 10.6632 106.265 12.5542 106.265C13.7603 106.265 14.825 106.005 15.7482 105.483C16.6416 104.977 17.6913 103.994 18.8974 102.535V109.169C16.8575 110.226 14.8175 110.755 12.7776 110.755C9.4124 110.755 6.59817 109.668 4.33486 107.494C2.07156 105.305 0.939911 102.587 0.939911 99.3413C0.939911 96.0953 2.08645 93.3555 4.37953 91.1219C6.67262 88.8884 9.48685 87.7717 12.8222 87.7717C14.9664 87.7717 16.9915 88.2854 18.8974 89.3128Z"
          fill="white"/>
    <path d="M43.5778 100.436H27.9879C28.1219 102.223 28.7026 103.645 29.73 104.702C30.7574 105.744 32.0752 106.265 33.6833 106.265C34.9341 106.265 35.969 105.967 36.7879 105.372C37.592 104.776 38.5077 103.674 39.5352 102.066L43.7789 104.434C43.1237 105.55 42.4313 106.511 41.7017 107.315C40.9721 108.104 40.1903 108.759 39.3565 109.28C38.5226 109.787 37.6218 110.159 36.6539 110.397C35.6861 110.635 34.6363 110.755 33.5047 110.755C30.2586 110.755 27.6528 109.712 25.6873 107.628C23.7218 105.528 22.7391 102.744 22.7391 99.2743C22.7391 95.8347 23.692 93.0502 25.598 90.9209C27.5188 88.8214 30.065 87.7717 33.2366 87.7717C36.438 87.7717 38.9693 88.7916 40.8306 90.8316C42.677 92.8566 43.6002 95.6634 43.6002 99.252L43.5778 100.436ZM38.4184 96.3261C37.7186 93.6458 36.0285 92.3057 33.3483 92.3057C32.7378 92.3057 32.1645 92.4025 31.6285 92.5961C31.0924 92.7748 30.6011 93.0428 30.1544 93.4001C29.7226 93.7426 29.3503 94.1595 29.0376 94.6509C28.7249 95.1423 28.4867 95.7007 28.3229 96.3261H38.4184Z"
          fill="white"/>
    <path d="M68.906 100.436H53.316C53.45 102.223 54.0307 103.645 55.0581 104.702C56.0855 105.744 57.4033 106.265 59.0115 106.265C60.2622 106.265 61.2971 105.967 62.1161 105.372C62.9201 104.776 63.8359 103.674 64.8633 102.066L69.107 104.434C68.4518 105.55 67.7594 106.511 67.0298 107.315C66.3002 108.104 65.5185 108.759 64.6846 109.28C63.8508 109.787 62.9499 110.159 61.982 110.397C61.0142 110.635 59.9644 110.755 58.8328 110.755C55.5867 110.755 52.981 109.712 51.0155 107.628C49.05 105.528 48.0672 102.744 48.0672 99.2743C48.0672 95.8347 49.0202 93.0502 50.9261 90.9209C52.8469 88.8214 55.3932 87.7717 58.5648 87.7717C61.7661 87.7717 64.2975 88.7916 66.1587 90.8316C68.0051 92.8566 68.9283 95.6634 68.9283 99.252L68.906 100.436ZM63.7465 96.3261C63.0467 93.6458 61.3567 92.3057 58.6764 92.3057C58.0659 92.3057 57.4927 92.4025 56.9566 92.5961C56.4206 92.7748 55.9292 93.0428 55.4825 93.4001C55.0507 93.7426 54.6784 94.1595 54.3657 94.6509C54.053 95.1423 53.8148 95.7007 53.651 96.3261H63.7465Z"
          fill="white"/>
    <path d="M81.637 105.394H94.5691V110.129H71.6755L85.7691 93.0651H74.6685V88.3747H95.7082L81.637 105.394Z"
          fill="white"/>
    <path d="M115.341 88.3747H120.389V110.129H115.341V107.851C113.271 109.787 111.045 110.755 108.663 110.755C105.655 110.755 103.168 109.668 101.203 107.494C99.2521 105.275 98.2768 102.505 98.2768 99.185C98.2768 95.924 99.2521 93.2066 101.203 91.0326C103.153 88.8586 105.595 87.7717 108.529 87.7717C111.06 87.7717 113.331 88.814 115.341 90.8986V88.3747ZM103.414 99.185C103.414 101.27 103.972 102.967 105.089 104.277C106.236 105.603 107.68 106.265 109.422 106.265C111.283 106.265 112.787 105.625 113.934 104.344C115.08 103.019 115.654 101.337 115.654 99.2966C115.654 97.2567 115.08 95.5741 113.934 94.2489C112.787 92.9534 111.298 92.3057 109.467 92.3057C107.739 92.3057 106.295 92.9609 105.134 94.2712C103.987 95.5964 103.414 97.2344 103.414 99.185Z"
          fill="white"/>
    <path d="M142.769 88.3747H147.816V110.129H142.769V107.851C140.699 109.787 138.473 110.755 136.09 110.755C133.082 110.755 130.596 109.668 128.63 107.494C126.68 105.275 125.704 102.505 125.704 99.185C125.704 95.924 126.68 93.2066 128.63 91.0326C130.581 88.8586 133.023 87.7717 135.956 87.7717C138.488 87.7717 140.758 88.814 142.769 90.8986V88.3747ZM130.842 99.185C130.842 101.27 131.4 102.967 132.517 104.277C133.663 105.603 135.108 106.265 136.85 106.265C138.711 106.265 140.215 105.625 141.361 104.344C142.508 103.019 143.081 101.337 143.081 99.2966C143.081 97.2567 142.508 95.5741 141.361 94.2489C140.215 92.9534 138.726 92.3057 136.894 92.3057C135.167 92.3057 133.723 92.9609 132.561 94.2712C131.415 95.5964 130.842 97.2344 130.842 99.185Z"
          fill="white"/>
    <path d="M154.159 88.3747H159.185V90.3849C160.153 89.3724 160.979 88.6874 161.664 88.33C162.394 87.9578 163.309 87.7717 164.411 87.7717C166.868 87.7717 168.811 88.8438 170.241 90.9879C171.819 88.8438 173.956 87.7717 176.651 87.7717C181.55 87.7717 183.999 90.7423 183.999 96.6834V110.129H178.952V98.0459C178.952 95.9612 178.698 94.4871 178.192 93.6235C177.671 92.745 176.815 92.3057 175.624 92.3057C174.239 92.3057 173.226 92.8269 172.586 93.8692C171.961 94.9115 171.648 96.5866 171.648 98.8946V110.129H166.6V98.1129C166.6 94.2414 165.483 92.3057 163.25 92.3057C161.835 92.3057 160.8 92.8343 160.145 93.8915C159.505 94.9487 159.185 96.6164 159.185 98.8946V110.129H154.159V88.3747Z"
          fill="white"/>
    <path fill-rule="evenodd" clip-rule="evenodd"
          d="M130.5 37.5C130.5 58.2107 113.711 75 93 75C72.2893 75 55.5 58.2107 55.5 37.5C55.5 16.7893 72.2893 0 93 0C113.711 0 130.5 16.7893 130.5 37.5ZM112.963 15.3644C115.262 17.5673 117.516 19.8167 119.722 22.1124C121.092 23.5383 120.733 25.8926 119.099 26.9979C117.716 27.9321 116.164 27.7232 114.815 26.4032C113.881 25.4895 112.962 24.5605 112.083 23.6716C111.691 23.2763 111.308 22.8888 110.935 22.5142L107.348 26.1102C107.542 26.2952 107.744 26.4861 107.951 26.6814C108.417 27.1215 108.907 27.5847 109.39 28.0568C110.088 28.7386 110.785 29.4204 111.457 30.1282C112.897 31.6484 112.654 33.9925 110.952 35.1443C109.605 36.0567 108.024 35.8797 106.728 34.6177C105.772 33.686 104.832 32.7367 103.905 31.7993C103.503 31.394 103.104 30.9909 102.707 30.5924L96.9412 36.3555L96.9654 36.385C97.1481 36.6082 97.3394 36.8418 97.5214 37.0808C100.398 40.8595 101.558 45.1213 100.746 49.7877C99.2171 58.5593 91.7888 64.1773 82.9157 63.4143C73.5827 62.6136 66.6693 53.3402 68.5362 44.145C70.6439 33.8127 81.0633 28.1468 90.8329 32.0444C91.4189 32.2838 91.7438 32.1735 92.1601 31.7543C97.4083 26.4946 102.66 21.2392 107.915 15.9881C108.152 15.7385 108.403 15.5022 108.666 15.2802C110.05 14.1648 111.683 14.1358 112.963 15.3644ZM80.7635 54.1387C82.1026 55.0332 83.6769 55.5105 85.2873 55.5102C87.4465 55.5098 89.5171 54.6518 91.0437 53.125C92.5703 51.5981 93.4279 49.5273 93.4279 47.3682C93.4279 45.7578 92.9504 44.1836 92.0556 42.8446C91.1609 41.5056 89.8892 40.462 88.4014 39.8458C86.9135 39.2296 85.2764 39.0685 83.6969 39.3827C82.1175 39.697 80.6667 40.4726 79.5281 41.6114C78.3895 42.7503 77.6141 44.2012 77.3001 45.7807C76.9861 47.3601 77.1476 48.9973 77.7641 50.485C78.3805 51.9728 79.4244 53.2443 80.7635 54.1387Z"
          fill="white"/>
</svg>
