<svg width="177" height="40" viewBox="0 0 177 40" fill="none" xmlns="http://www.w3.org/2000/svg">
<path fill-rule="evenodd" clip-rule="evenodd" d="M32.25 20C32.25 28.6294 25.2544 35.625 16.625 35.625C7.99555 35.625 1 28.6294 1 20C1 11.3706 7.99555 4.375 16.625 4.375C25.2544 4.375 32.25 11.3706 32.25 20ZM24.9428 10.7768C25.901 11.6947 26.8398 12.6319 27.7593 13.5885C28.3298 14.1826 28.1806 15.1636 27.4994 15.6241C26.9234 16.0134 26.2767 15.9263 25.7146 15.3763C25.3255 14.9956 24.9426 14.6086 24.5761 14.2382C24.4131 14.0735 24.2534 13.912 24.0978 13.7559L22.6031 15.2542C22.6842 15.3314 22.7683 15.4109 22.8545 15.4923C23.0486 15.6757 23.2528 15.8686 23.4541 16.0653L23.4542 16.0654C23.7449 16.3495 24.0356 16.6335 24.3154 16.9284C24.9156 17.5618 24.814 18.5386 24.1051 19.0185C23.5436 19.3986 22.8848 19.3249 22.3451 18.7991C21.9467 18.4109 21.5552 18.0153 21.1686 17.6247C21.0014 17.4558 20.8351 17.2879 20.6697 17.1218L18.2672 19.5231L18.2772 19.5354C18.3534 19.6284 18.4331 19.7257 18.5089 19.8253C19.7075 21.3998 20.191 23.1755 19.8525 25.1199C19.2155 28.7747 16.1203 31.1156 12.4232 30.7976C8.53448 30.464 5.65389 26.6001 6.43176 22.7688C7.30996 18.4636 11.6514 16.1028 15.722 17.7268C15.9662 17.8266 16.1016 17.7806 16.2751 17.606C18.4618 15.4144 20.6499 13.2247 22.8395 11.0367C22.9383 10.9327 23.0428 10.8342 23.1525 10.7418C23.7291 10.277 24.4097 10.2649 24.9428 10.7768ZM11.5265 26.9328C12.0844 27.3055 12.7404 27.5044 13.4114 27.5043C14.311 27.5041 15.1738 27.1466 15.8099 26.5104C16.446 25.8742 16.8033 25.0114 16.8033 24.1117C16.8033 23.4407 16.6043 22.7848 16.2315 22.2269C15.8587 21.669 15.3288 21.2342 14.7089 20.9774C14.089 20.7207 13.4068 20.6535 12.7487 20.7845C12.0906 20.9154 11.4861 21.2386 11.0117 21.7131C10.5373 22.1876 10.2142 22.7922 10.0834 23.4503C9.95256 24.1084 10.0198 24.7905 10.2767 25.4104C10.5336 26.0303 10.9685 26.5601 11.5265 26.9328Z" fill="white"/>
<path d="M60.7515 13.0729V17.7221C59.9533 16.7477 59.238 16.079 58.6057 15.7162C57.9837 15.3431 57.2529 15.1565 56.4133 15.1565C55.0968 15.1565 54.0032 15.6178 53.1324 16.5403C52.2617 17.4629 51.8263 18.6187 51.8263 20.0078C51.8263 21.4279 52.2461 22.5941 53.0858 23.5063C53.9358 24.4185 55.019 24.8746 56.3355 24.8746C57.1752 24.8746 57.9163 24.6932 58.559 24.3304C59.181 23.978 59.9118 23.2938 60.7515 22.2779V26.896C59.3313 27.632 57.9112 28 56.491 28C54.1483 28 52.1891 27.2433 50.6135 25.7298C49.0378 24.206 48.25 22.3142 48.25 20.0544C48.25 17.7946 49.0482 15.8873 50.6446 14.3324C52.2409 12.7775 54.2001 12 56.5221 12C58.0148 12 59.4246 12.3576 60.7515 13.0729Z" fill="white"/>
<path d="M77.9332 20.8163H67.0799C67.1732 22.0603 67.5775 23.0502 68.2928 23.7862C69.008 24.5118 69.9254 24.8746 71.045 24.8746C71.9157 24.8746 72.6361 24.6673 73.2063 24.2527C73.766 23.838 74.4035 23.0709 75.1188 21.9514L78.0731 23.5996C77.617 24.3771 77.135 25.0457 76.6271 25.6054C76.1191 26.1548 75.5749 26.6109 74.9944 26.9738C74.4139 27.3262 73.7868 27.5854 73.113 27.7512C72.4392 27.9171 71.7084 28 70.9206 28C68.6608 28 66.8467 27.2744 65.4784 25.8231C64.1101 24.3615 63.4259 22.4231 63.4259 20.0078C63.4259 17.6132 64.0893 15.6748 65.4162 14.1924C66.7534 12.7308 68.526 12 70.734 12C72.9627 12 74.7249 12.7101 76.0207 14.1302C77.306 15.54 77.9487 17.494 77.9487 19.9922L77.9332 20.8163ZM74.3414 17.9553C73.8541 16.0894 72.6776 15.1565 70.8117 15.1565C70.3867 15.1565 69.9876 15.2238 69.6144 15.3586C69.2413 15.483 68.8992 15.6696 68.5882 15.9184C68.2876 16.1568 68.0284 16.447 67.8107 16.7891C67.5931 17.1312 67.4272 17.5199 67.3132 17.9553H74.3414Z" fill="white"/>
<path d="M95.5658 20.8163H84.7126C84.8059 22.0603 85.2102 23.0502 85.9254 23.7862C86.6407 24.5118 87.5581 24.8746 88.6776 24.8746C89.5484 24.8746 90.2688 24.6673 90.8389 24.2527C91.3987 23.838 92.0362 23.0709 92.7515 21.9514L95.7058 23.5996C95.2497 24.3771 94.7677 25.0457 94.2597 25.6054C93.7518 26.1548 93.2076 26.6109 92.6271 26.9738C92.0466 27.3262 91.4194 27.5854 90.7456 27.7512C90.0718 27.9171 89.341 28 88.5532 28C86.2934 28 84.4794 27.2744 83.111 25.8231C81.7427 24.3615 81.0586 22.4231 81.0586 20.0078C81.0586 17.6132 81.722 15.6748 83.0488 14.1924C84.3861 12.7308 86.1587 12 88.3666 12C90.5953 12 92.3576 12.7101 93.6533 14.1302C94.9387 15.54 95.5814 17.494 95.5814 19.9922L95.5658 20.8163ZM91.974 17.9553C91.4868 16.0894 90.3103 15.1565 88.4444 15.1565C88.0194 15.1565 87.6203 15.2238 87.2471 15.3586C86.8739 15.483 86.5318 15.6696 86.2208 15.9184C85.9202 16.1568 85.6611 16.447 85.4434 16.7891C85.2257 17.1312 85.0599 17.5199 84.9458 17.9553H91.974Z" fill="white"/>
<path d="M104.429 24.2682H113.432V27.5646H97.4939L107.305 15.6851H99.5775V12.4198H114.225L104.429 24.2682Z" fill="white"/>
<path d="M127.892 12.4198H131.406V27.5646H127.892V25.9786C126.452 27.3262 124.902 28 123.243 28C121.149 28 119.418 27.2433 118.05 25.7298C116.692 24.1853 116.013 22.2572 116.013 19.9456C116.013 17.6754 116.692 15.7836 118.05 14.2702C119.408 12.7567 121.108 12 123.15 12C124.912 12 126.493 12.7256 127.892 14.1769V12.4198ZM119.589 19.9456C119.589 21.3968 119.978 22.5786 120.755 23.4908C121.554 24.4133 122.559 24.8746 123.772 24.8746C125.068 24.8746 126.115 24.4289 126.913 23.5374C127.711 22.6148 128.11 21.4435 128.11 20.0233C128.11 18.6032 127.711 17.4318 126.913 16.5092C126.115 15.6074 125.078 15.1565 123.803 15.1565C122.601 15.1565 121.595 15.6126 120.786 16.5248C119.988 17.4474 119.589 18.5876 119.589 19.9456Z" fill="white"/>
<path d="M146.987 12.4198H150.501V27.5646H146.987V25.9786C145.546 27.3262 143.996 28 142.337 28C140.244 28 138.512 27.2433 137.144 25.7298C135.786 24.1853 135.107 22.2572 135.107 19.9456C135.107 17.6754 135.786 15.7836 137.144 14.2702C138.502 12.7567 140.202 12 142.244 12C144.006 12 145.587 12.7256 146.987 14.1769V12.4198ZM138.683 19.9456C138.683 21.3968 139.072 22.5786 139.85 23.4908C140.648 24.4133 141.653 24.8746 142.866 24.8746C144.162 24.8746 145.209 24.4289 146.007 23.5374C146.805 22.6148 147.204 21.4435 147.204 20.0233C147.204 18.6032 146.805 17.4318 146.007 16.5092C145.209 15.6074 144.172 15.1565 142.897 15.1565C141.695 15.1565 140.689 15.6126 139.881 16.5248C139.083 17.4474 138.683 18.5876 138.683 19.9456Z" fill="white"/>
<path d="M154.917 12.4198H158.415V13.8192C159.089 13.1144 159.664 12.6375 160.141 12.3887C160.649 12.1296 161.287 12 162.054 12C163.764 12 165.117 12.7464 166.112 14.2391C167.211 12.7464 168.698 12 170.575 12C173.985 12 175.69 14.068 175.69 18.2041V27.5646H172.176V19.1526C172.176 17.7013 172 16.6751 171.647 16.0739C171.285 15.4623 170.689 15.1565 169.859 15.1565C168.895 15.1565 168.19 15.5193 167.745 16.2449C167.309 16.9705 167.092 18.1367 167.092 19.7434V27.5646H163.578V19.1992C163.578 16.504 162.8 15.1565 161.245 15.1565C160.26 15.1565 159.54 15.5245 159.084 16.2604C158.638 16.9964 158.415 18.1574 158.415 19.7434V27.5646H154.917V12.4198Z" fill="white"/>
</svg>
